<svg width="30" height="22" fill="none" xmlns="http://www.w3.org/2000/svg"><path d="M7.803 10.828c.954.23 1.807.716 2.558 1.461 1.098 1.089 1.648 2.435 1.648 4.04 0 1.575-.55 2.921-1.648 4.038C9.263 21.456 7.934 22 6.373 22c-1.387 0-2.717-.516-3.989-1.547C1.142 19.451.39 17.99.13 16.07A14.813 14.813 0 010 14.137c0-2.292.564-4.54 1.69-6.746C3.8 3.294 6.43.917 9.58.258A12.28 12.28 0 0112.053 0c.463 0 .954.029 1.474.086a613.175 613.175 0 00-1.69 4.684c-1.215.143-2.24.859-3.079 2.148-.636.974-.954 1.977-.954 3.008v.902zm16.474 0c.954.23 1.807.716 2.558 1.461 1.098 1.089 1.648 2.435 1.648 4.04 0 1.575-.55 2.921-1.648 4.038C25.737 21.456 24.407 22 22.847 22c-1.388 0-2.717-.516-3.989-1.547-1.242-1.002-1.994-2.463-2.254-4.383a14.814 14.814 0 01-.13-1.933c0-2.292.564-4.54 1.69-6.746 2.11-4.097 4.74-6.474 7.89-7.133A12.281 12.281 0 0128.527 0c.462 0 .954.029 1.474.086a617.688 617.688 0 00-1.69 4.684c-1.215.143-2.24.859-3.079 2.148-.636.974-.954 1.977-.954 3.008v.902z" fill="#ED1C24"/></svg>