<svg width="16" height="17" fill="none" xmlns="http://www.w3.org/2000/svg"><path d="M13.333 7.833a.667.667 0 00-.666.667v4a.667.667 0 01-.667.667H4a.667.667 0 01-.667-.667v-8c0-.368.299-.667.667-.667h4A.667.667 0 108 2.5H4a2 2 0 00-2 2v8a2 2 0 002 2h8a2 2 0 002-2v-4a.667.667 0 00-.667-.667z" fill="#B0BCC2"/><path d="M10.667 3.833h1.054L7.527 8.02a.667.667 0 000 .947.667.667 0 00.947 0l4.193-4.187v1.053a.667.667 0 001.334 0V3.167a.667.667 0 00-.667-.667h-2.667a.667.667 0 100 1.333z" fill="#B0BCC2"/></svg>