<svg width="13" height="13" fill="none" xmlns="http://www.w3.org/2000/svg"><path fill-rule="evenodd" clip-rule="evenodd" d="M6.5 0C4.736 0 4.515.008 3.82.04c-.692.03-1.164.14-1.577.3a3.18 3.18 0 00-1.152.75 3.19 3.19 0 00-.75 1.151C.18 2.656.071 3.128.04 3.82.01 4.513 0 4.735 0 6.5c0 1.765.008 1.986.04 2.68.031.691.14 1.164.301 1.577.166.428.388.79.75 1.152a3.19 3.19 0 001.151.75c.414.16.886.27 1.578.302.693.031.915.039 2.68.039 1.765 0 1.986-.008 2.68-.04.691-.031 1.164-.14 1.578-.301.427-.166.79-.389 1.15-.75a3.18 3.18 0 00.75-1.152c.16-.413.27-.886.303-1.577.03-.694.039-.915.039-2.68 0-1.765-.008-1.987-.04-2.68-.032-.692-.142-1.164-.301-1.578a3.189 3.189 0 00-.75-1.151 3.177 3.177 0 00-1.152-.75C10.343.181 9.87.071 9.178.04 8.485.008 8.264 0 6.498 0h.003zm-.583 1.171h.584c1.735 0 1.94.007 2.626.038.634.029.978.135 1.207.224.303.117.52.258.747.486.227.227.368.444.486.747.09.229.195.573.224 1.207.031.685.038.89.038 2.625 0 1.735-.007 1.941-.038 2.626-.029.634-.135.978-.224 1.207a2.01 2.01 0 01-.486.747 2.01 2.01 0 01-.747.486c-.229.089-.573.195-1.207.224-.685.03-.891.037-2.626.037-1.736 0-1.942-.006-2.627-.037-.634-.03-.978-.136-1.207-.225a2.013 2.013 0 01-.747-.486 2.014 2.014 0 01-.487-.747c-.089-.229-.195-.573-.224-1.206-.03-.686-.037-.891-.037-2.627 0-1.736.006-1.94.037-2.626.03-.634.135-.978.224-1.207.118-.303.259-.52.486-.747a2.02 2.02 0 01.748-.487c.23-.089.573-.195 1.207-.224.6-.027.832-.035 2.043-.036v.001zm4.053 1.08a.78.78 0 100 1.56.78.78 0 000-1.56zm-3.47.911a3.338 3.338 0 100 6.676 3.338 3.338 0 000-6.676zm0 1.171a2.167 2.167 0 110 4.334 2.167 2.167 0 010-4.334z" fill="#fff"/></svg>