<svg width="175" height="91" fill="none" xmlns="http://www.w3.org/2000/svg"><path d="M5.234 1.418h13.504V89.97H5.234a4 4 0 01-4-4V5.418a4 4 0 014-4z" stroke="#728189" stroke-width="2"/><path d="M17.952 23.707h154.421a1 1 0 011 1v41.972a1 1 0 01-1 1H17.953V23.707z" stroke="#728189" stroke-width="2"/><path d="M170.366 61.213v.5h-4.013v-.5h-4.012v.5h-4.013v-.5h-4.012v.5h-4.013v-.5h-4.013v.5h-4.012v-.5h-4.013v.5h-4.013v-.5h-4.012v.5h-4.013v-.5h-1.506v-1.502h-.5v-4.005h.5V51.7h-.5v-4.005h.5V43.69h-.5v-4.005h.5V35.68h-.5v-4.006h.5v-1.502h1.506v-.5h4.013v.5h4.012v-.5h4.013v.5h4.013v-.5h4.012v.5h4.013v-.5h4.013v.5h4.012v-.5h4.013v.5h4.012v-.5h4.013v.5h2.006a1.5 1.5 0 011.5 1.5v1.753h.5v3.505h-.5v3.505h.5v3.505h-.5v3.505h.5v3.505h-.5v3.505h.5v3.506h-.5v1.752a1.5 1.5 0 01-1.5 1.5h-2.006z" stroke="#728189" stroke-dasharray="4 4"/><path d="M125.614 29.672l-8.359 16.749 8.359 15.292" stroke="#728189"/></svg>