<svg width="142" height="82" fill="none" xmlns="http://www.w3.org/2000/svg"><path d="M4.562 62.586L0 77.556h3.499l1.063-3.853h4.296l1.152 3.81h3.632l-4.65-14.927h-4.43zm.487 8.593l.93-3.19c.089-.354.31-1.328.665-2.878h.044c0 .088.133.487.31 1.24s.31 1.284.399 1.639l.93 3.189H5.049zm17.228-.534h-3.41v-3.942H15.5v10.852h3.366v-4.297h3.41v4.297h3.367V66.703h-3.366v3.942zm15.196 3.676c-.709-1.771-1.594-2.79-2.702-2.967l3.986-4.65h-3.941l-2.747 4.34h-.354v-4.34h-3.41V77.51h3.366v-4.296h.354c1.019 0 1.772.62 2.26 1.905.265.82.59 1.62.974 2.391h3.543a16.218 16.218 0 01-.797-1.816c-.31-.797-.488-1.284-.532-1.373zm7.617-7.84c-1.727 0-3.145.488-4.208 1.55a5.54 5.54 0 00-1.594 4.164 5.337 5.337 0 001.594 4.075 5.55 5.55 0 004.03 1.506 5.758 5.758 0 004.031-1.462c1.108-1.019 1.684-2.436 1.684-4.296a5.317 5.317 0 00-5.537-5.537zm1.462 7.973a1.874 1.874 0 01-1.595.886 1.89 1.89 0 01-1.639-.886 4.293 4.293 0 01-.575-2.348 4.664 4.664 0 01.575-2.303 1.86 1.86 0 011.683-.93 1.723 1.723 0 011.595.93c.367.711.55 1.503.531 2.303a4.097 4.097 0 01-.575 2.348zm12.761-8.061a4.213 4.213 0 00-3.588 1.772h-.044l-.133-1.506h-2.923c.044 1.373.089 2.57.089 3.632v11.56h3.366v-5.403h.044c.576.841 1.506 1.24 2.79 1.24a4.601 4.601 0 003.455-1.506c.975-1.019 1.462-2.436 1.462-4.296a5.856 5.856 0 00-1.329-3.987 4.066 4.066 0 00-3.189-1.506zm.443 7.929a1.927 1.927 0 01-1.683.841 1.856 1.856 0 01-1.24-.443 2.41 2.41 0 01-.709-1.151 3.578 3.578 0 01-.044-.709v-2.082c.096-.489.363-.928.753-1.24a2.02 2.02 0 011.284-.487 1.927 1.927 0 011.683.841c.393.671.592 1.438.576 2.215a3.75 3.75 0 01-.62 2.215zm15.184-3.185c0-1.417-.355-2.569-1.24-3.41-.754-.842-1.95-1.285-3.633-1.285a8.332 8.332 0 00-4.207.975l.62 2.126a5.89 5.89 0 013.011-.797c1.33 0 1.994.487 1.994 1.417v.133c-1.95 0-3.544.31-4.651 1.019a3.459 3.459 0 00-1.683 3.1 3.317 3.317 0 00.974 2.347 3.273 3.273 0 002.525.975 3.774 3.774 0 003.1-1.329h.089l.221 1.107h3.057a12.46 12.46 0 01-.178-2.613v-3.765zm-3.234 2.436c0 .222-.044.4-.044.62-.128.356-.36.664-.665.886a2.05 2.05 0 01-1.107.355 1.226 1.226 0 01-1.329-1.329c0-1.107 1.063-1.683 3.145-1.683v1.151zm20.859-10.987H81.094v2.835h4.03v12.091h3.367V65.421h4.074v-2.835zm6.607 3.807a4.213 4.213 0 00-3.587 1.772h-.044l-.133-1.506h-2.924c.045 1.373.089 2.57.089 3.632v11.56h3.366v-5.403h.044c.576.841 1.506 1.24 2.79 1.24a4.598 4.598 0 003.456-1.506c.974-1.019 1.461-2.436 1.461-4.296a5.853 5.853 0 00-1.329-3.987 4.06 4.06 0 00-3.189-1.506zm.443 7.929a1.925 1.925 0 01-1.683.841 1.856 1.856 0 01-1.24-.443 2.41 2.41 0 01-.709-1.151 3.586 3.586 0 01-.044-.709v-1.462a2.882 2.882 0 000-.62c.097-.489.364-.928.753-1.24a2.02 2.02 0 011.285-.487 1.927 1.927 0 011.683.841 4.21 4.21 0 01.575 2.215 3.743 3.743 0 01-.62 2.215zm11.067-7.842a5.012 5.012 0 00-4.03 1.772 6.3 6.3 0 00-1.417 4.031c0 1.683.487 3.056 1.505 4.03 1.019.975 2.437 1.462 4.252 1.462a10.41 10.41 0 003.898-.664l-.443-2.303a9.527 9.527 0 01-3.012.442 3.987 3.987 0 01-2.126-.531 1.953 1.953 0 01-.93-1.55h6.998c.091-.422.135-.853.133-1.285a6.236 6.236 0 00-1.196-3.853c-.797-1.019-1.993-1.55-3.632-1.55zm-2.303 4.386a3.153 3.153 0 01.576-1.506 1.8 1.8 0 011.506-.665 1.611 1.611 0 011.462.665c.298.444.453.97.443 1.506h-3.987zm14.31-5.486a3.056 3.056 0 002.303-.798 3.374 3.374 0 00.975-2.348h-2.126c-.045 1.02-.399 1.55-1.063 1.55-.665 0-.975-.487-1.019-1.55h-2.126c.005.848.285 1.672.797 2.348a3.053 3.053 0 002.259.797zm-.848 5.974c-.178.354-.355.886-.62 1.55-.266.664-.443 1.152-.621 1.55h-.088c.133-1.993.177-3.455.177-4.429v-3.322H117.5v10.852h4.075c.221-.532.576-1.373 1.107-2.525.532-1.152.886-2.037 1.152-2.569.31-.664.708-1.639 1.151-2.879h.089c-.133 2.702-.177 4.252-.177 4.65v3.323h3.189V66.703h-4.119l-2.126 4.65zm18.961 3.809v-8.46h-8.725v2.658a13.998 13.998 0 01-.487 3.543 8.701 8.701 0 01-1.063 2.259l-1.019.088.088 5.803h2.569l.133-3.5h6.865l.133 3.5h2.569l.133-5.847-1.196-.044zm-3.277-.089h-3.588a7.81 7.81 0 00.753-1.86 11.2 11.2 0 00.399-2.79v-1.285h2.436v5.935zm-22.014-49.961c-1.595-8.016-8.017-14.084-14.882-17.982C91.815 2.171 81.14 0 71.042 0 60.943 0 50.269 2.215 41.455 7.22c-6.865 3.853-13.287 9.965-14.882 17.982a19.246 19.246 0 000 7.352c1.595 8.017 8.017 14.085 14.882 17.983 8.814 4.96 19.489 7.042 29.587 7.042 10.099 0 20.728-2.126 29.587-7.13 6.865-3.854 13.287-9.966 14.882-17.983a19.266 19.266 0 000-7.353zm-2.037 6.954c-1.462 7.397-7.53 13.022-13.864 16.61-8.504 4.783-18.868 6.865-28.568 6.865-9.7 0-20.064-1.949-28.568-6.777-6.334-3.587-12.402-9.212-13.863-16.61a17.475 17.475 0 010-6.554c1.461-7.397 7.53-13.022 13.863-16.61 8.504-4.783 18.868-6.954 28.568-6.954 9.7 0 20.064 2.038 28.568 6.866 6.334 3.587 12.402 9.212 13.864 16.61a17.49 17.49 0 010 6.554z" fill="#fff"/><path d="M92.131 40.704L80.837 16.742h7.53l-2.215-4.695h-31.27l3.322 7.13-6.777 21.66h-2.79l-2.215 4.694h9.124l2.215-4.694h-3.145l1.993-6.423c1.22.44 2.512.65 3.81.62h.353c1.86-.044 3.5-.487 4.385-1.107l5.493 11.605h11.427l-2.26-4.828h-1.195L67.328 16.742h3.277l13.553 28.79h11.428l-2.26-4.828h-1.195zM60.772 30.605h-.354c-.91.005-1.815.11-2.702.31l2.392-7.662.664 1.328 3.056 6.467a12.056 12.056 0 00-3.056-.443z" fill="#fff"/></svg>