<svg width="75" height="48" fill="none" xmlns="http://www.w3.org/2000/svg"><path d="M74.437 20.935c-1.33-6.683-6.683-11.741-12.406-14.99C54.683 1.809 45.785 0 37.366 0 28.948 0 20.05 1.846 12.701 6.018 6.978 9.231 1.625 14.326.295 21.01a16.047 16.047 0 000 6.13c1.33 6.683 6.683 11.741 12.406 14.99C20.05 46.265 28.948 48 37.367 48s17.28-1.772 24.665-5.945c5.723-3.212 11.077-8.307 12.406-14.99a16.047 16.047 0 000-6.13zm-1.699 5.797c-1.218 6.166-6.276 10.856-11.556 13.846-7.09 3.988-15.73 5.723-23.816 5.723-8.086 0-16.726-1.624-23.815-5.649-5.28-2.99-10.339-7.68-11.557-13.846a14.57 14.57 0 010-5.465C3.212 15.175 8.27 10.486 13.55 7.495c7.09-3.987 15.73-5.797 23.816-5.797 8.086 0 16.726 1.699 23.816 5.724 5.28 2.99 10.338 7.68 11.556 13.846.345 1.805.345 3.66 0 5.464z" fill="#fff"/><path d="M54.944 33.932L45.53 13.957h6.277l-1.846-3.914H23.892l2.77 5.945-5.65 18.055h-2.326l-1.846 3.914h7.606l1.846-3.914h-2.621l1.661-5.354a8.79 8.79 0 003.175.517h.296c1.55-.037 2.917-.406 3.655-.923l4.579 9.674h9.526l-1.883-4.025h-.997l-9.416-19.975H37l11.298 24h9.526l-1.883-4.025h-.997zm-26.141-8.418h-.296c-.757.004-1.513.09-2.252.258l1.994-6.387.554 1.107 2.548 5.391a10.047 10.047 0 00-2.548-.37z" fill="#fff"/></svg>