<svg width="159" height="107" fill="none" xmlns="http://www.w3.org/2000/svg"><path d="M147.827 91.573L111.3 15.003h24.351L128.489 0H27.359l10.744 22.787-21.917 69.21H7.162L0 107h29.508l7.162-15.003H26.5l6.446-20.522a34.48 34.48 0 0012.319 1.981h1.146c6.016-.141 11.316-1.556 14.18-3.538L78.355 107h36.957l-7.306-15.427h-3.867l-36.527-76.57h10.6L122.043 107H159l-7.305-15.427h-3.868zM46.411 59.303h-1.146c-2.94.017-5.87.35-8.738.99l7.735-24.485 2.149 4.246 9.884 20.664a39.417 39.417 0 00-9.884-1.415z" fill="#F0F3F4"/></svg>